<svg width="40" height="40" viewBox="0 0 40 40" fill="none" xmlns="http://www.w3.org/2000/svg">
<path fill-rule="evenodd" clip-rule="evenodd" d="M19.993 1C15.2746 1.00245 10.7109 2.6736 7.11804 5.71464C3.52513 8.75568 1.13726 12.9683 0.381406 17.5993C-0.374453 22.2302 0.550979 26.9775 2.99225 30.9922C5.43351 35.007 9.23141 38.0274 13.7068 39.5135C14.6942 39.6967 15.0661 39.0848 15.0661 38.5645C15.0661 38.0441 15.0463 36.5355 15.0398 34.8862C9.51058 36.0807 8.34223 32.553 8.34223 32.553C7.44045 30.2623 6.13714 29.6601 6.13714 29.6601C4.33358 28.4362 6.27209 28.4591 6.27209 28.4591C8.26983 28.5999 9.31971 30.4979 9.31971 30.4979C11.0904 33.5183 13.9701 32.6446 15.1023 32.1341C15.28 30.8546 15.7967 29.9841 16.3661 29.49C11.9494 28.9925 7.30879 27.2974 7.30879 19.725C7.28142 17.7611 8.01434 15.8619 9.35591 14.4203C9.15186 13.9229 8.47058 11.9136 9.55008 9.1844C9.55008 9.1844 11.2187 8.65427 15.0167 11.2101C18.2744 10.3242 21.7115 10.3242 24.9692 11.2101C28.7639 8.65427 30.4293 9.1844 30.4293 9.1844C31.5121 11.9071 30.8308 13.9164 30.6268 14.4203C31.9726 15.8621 32.707 17.7646 32.6771 19.7315C32.6771 27.3203 28.0267 28.9925 23.6034 29.4801C24.3143 30.0954 24.9495 31.2964 24.9495 33.142C24.9495 35.7862 24.9264 37.9132 24.9264 38.5645C24.9264 39.0913 25.2852 39.7066 26.2923 39.5135C30.7682 38.0273 34.5665 35.0063 37.0077 30.9908C39.4489 26.9754 40.3739 22.2274 39.6172 17.596C38.8604 12.9647 36.4714 8.75199 32.8773 5.71147C29.2832 2.67095 24.7185 1.0009 19.9995 1H19.993Z" fill="#191717"/>
<path d="M7.64404 29.3754C7.60126 29.4736 7.44328 29.503 7.31493 29.4343C7.18657 29.3656 7.09113 29.238 7.13721 29.1365C7.18329 29.0351 7.33797 29.0089 7.46633 29.0776C7.59468 29.1463 7.69341 29.2772 7.64404 29.3754Z" fill="#191717"/>
<path d="M8.45044 30.2688C8.38228 30.3029 8.3043 30.3125 8.22985 30.2957C8.15541 30.279 8.08912 30.2371 8.04234 30.1772C7.91398 30.0397 7.88764 29.8499 7.98637 29.7648C8.08511 29.6797 8.26284 29.719 8.3912 29.8565C8.51955 29.9939 8.54917 30.1837 8.45044 30.2688Z" fill="#191717"/>
<path d="M9.23367 31.4043C9.11189 31.4894 8.90454 31.4043 8.78935 31.2341C8.7575 31.2036 8.73217 31.167 8.71486 31.1265C8.69756 31.0861 8.68863 31.0425 8.68863 30.9985C8.68863 30.9545 8.69756 30.911 8.71486 30.8705C8.73217 30.83 8.7575 30.7934 8.78935 30.7629C8.91112 30.6811 9.11848 30.7629 9.23367 30.9298C9.34886 31.0967 9.35215 31.3192 9.23367 31.4043Z" fill="#191717"/>
<path d="M10.2968 32.5039C10.1882 32.625 9.96765 32.5922 9.78664 32.4286C9.60563 32.265 9.56283 32.0425 9.67144 31.9246C9.78005 31.8068 10.0006 31.8396 10.1882 31.9999C10.3757 32.1603 10.412 32.3861 10.2968 32.5039Z" fill="#191717"/>
<path d="M11.7876 33.1453C11.7382 33.2991 11.5144 33.3678 11.2906 33.3023C11.0668 33.2369 10.9187 33.0536 10.9615 32.8965C11.0043 32.7395 11.2314 32.6675 11.4585 32.7395C11.6856 32.8115 11.8304 32.9849 11.7876 33.1453Z" fill="#191717"/>
<path d="M13.4136 33.2565C13.4136 33.4169 13.2293 33.5543 12.9923 33.5576C12.7554 33.5609 12.5612 33.43 12.5612 33.2696C12.5612 33.1093 12.7455 32.9718 12.9825 32.9686C13.2194 32.9653 13.4136 33.0929 13.4136 33.2565Z" fill="#191717"/>
<path d="M14.9274 33.0046C14.957 33.1649 14.7924 33.3318 14.5555 33.3711C14.3185 33.4104 14.1112 33.3155 14.0815 33.1584C14.0519 33.0013 14.2231 32.8311 14.4534 32.7886C14.6838 32.7461 14.8978 32.8442 14.9274 33.0046Z" fill="#191717"/>
</svg>
