<svg width="40" height="40" viewBox="0 0 40 40" fill="none" xmlns="http://www.w3.org/2000/svg">
<g clip-path="url(#clip0_13_287)">
<path d="M6.10352e-05 40L2.82718 29.7338C1.07933 26.7205 0.16243 23.308 0.171981 19.8194C0.171981 8.88783 9.1118 0 20.086 0C25.4155 0 30.4203 2.06274 34.1739 5.80799C37.937 9.55323 40.0096 14.5342 40 19.8289C40 30.7605 31.0602 39.6483 20.0765 39.6483H20.0669C16.7336 39.6483 13.4575 38.8118 10.5445 37.2338L6.10352e-05 40ZM11.0507 33.6502L11.6524 34.0114C14.193 35.5133 17.1061 36.3023 20.0765 36.3118H20.086C29.2073 36.3118 36.638 28.9259 36.638 19.8384C36.638 15.4373 34.9188 11.3023 31.7956 8.18441C28.6724 5.06654 24.5082 3.35551 20.086 3.35551C10.9647 3.34601 3.53396 10.7319 3.53396 19.8194C3.53396 22.9278 4.40311 25.9601 6.065 28.5837L6.4566 29.211L4.78516 35.2852L11.0507 33.6502Z" fill="white"/>
<path d="M0.69722 39.3061L3.42883 29.3916C1.73829 26.4924 0.850037 23.1939 0.850037 19.8289C0.859588 9.27756 9.48422 0.693909 20.0859 0.693909C25.234 0.693909 30.0573 2.69011 33.6867 6.30228C37.3161 9.91444 39.3123 14.7243 39.3123 19.8384C39.3123 30.3897 30.6781 38.9734 20.0859 38.9734H20.0764C16.8577 38.9734 13.6963 38.1654 10.8882 36.6445L0.69722 39.3061Z" fill="url(#paint0_linear_13_287)"/>
<path d="M6.10352e-05 40L2.82718 29.7338C1.07933 26.7205 0.16243 23.308 0.171981 19.8194C0.171981 8.88783 9.1118 0 20.086 0C25.4155 0 30.4203 2.06274 34.1739 5.80799C37.937 9.55323 40.0096 14.5342 40 19.8289C40 30.7605 31.0602 39.6483 20.0765 39.6483H20.0669C16.7336 39.6483 13.4575 38.8118 10.5445 37.2338L6.10352e-05 40ZM11.0507 33.6502L11.6524 34.0114C14.193 35.5133 17.1061 36.3023 20.0765 36.3118H20.086C29.2073 36.3118 36.638 28.9259 36.638 19.8384C36.638 15.4373 34.9188 11.3023 31.7956 8.18441C28.6724 5.06654 24.5082 3.35551 20.086 3.35551C10.9647 3.34601 3.53396 10.7319 3.53396 19.8194C3.53396 22.9278 4.40311 25.9601 6.065 28.5837L6.4566 29.211L4.78516 35.2852L11.0507 33.6502Z" fill="url(#paint1_linear_13_287)"/>
<path fill-rule="evenodd" clip-rule="evenodd" d="M15.1098 11.5304C14.7373 10.7034 14.3457 10.6844 13.9923 10.6749C13.7057 10.6654 13.3715 10.6654 13.0372 10.6654C12.7029 10.6654 12.168 10.789 11.7096 11.2833C11.2511 11.7776 9.97127 12.9753 9.97127 15.4183C9.97127 17.8517 11.7573 20.2091 12.0056 20.5418C12.254 20.8745 15.4536 26.0361 20.5061 28.0228C24.7086 29.6768 25.5682 29.3441 26.4756 29.2586C27.3829 29.173 29.4173 28.0608 29.8375 26.9011C30.2482 25.7415 30.2482 24.7529 30.1241 24.5437C29.9999 24.3346 29.6656 24.211 29.169 23.9639C28.6723 23.7167 26.2272 22.519 25.7688 22.3479C25.3103 22.1863 24.976 22.1008 24.6513 22.5951C24.317 23.0894 23.3619 24.2015 23.0754 24.5342C22.7888 24.8669 22.4927 24.905 21.9961 24.6578C21.4994 24.4107 19.8948 23.8878 17.9942 22.1958C16.5138 20.884 15.5109 19.2586 15.2244 18.7643C14.9378 18.27 15.1957 18.0038 15.444 17.7567C15.6637 17.538 15.9407 17.1768 16.189 16.8916C16.4374 16.6065 16.5233 16.3973 16.6857 16.0646C16.8481 15.7319 16.7716 15.4468 16.6475 15.1996C16.5233 14.962 15.5491 12.5095 15.1098 11.5304Z" fill="white"/>
</g>
<defs>
<linearGradient id="paint0_linear_13_287" x1="20.0037" y1="39.3042" x2="20.0037" y2="0.692558" gradientUnits="userSpaceOnUse">
<stop stop-color="#20B038"/>
<stop offset="1" stop-color="#60D66A"/>
</linearGradient>
<linearGradient id="paint1_linear_13_287" x1="20.004" y1="39.9962" x2="20.004" y2="0" gradientUnits="userSpaceOnUse">
<stop stop-color="#F9F9F9"/>
<stop offset="1" stop-color="white"/>
</linearGradient>
<clipPath id="clip0_13_287">
<rect width="40" height="40" fill="white"/>
</clipPath>
</defs>
</svg>
